<svg xmlns="http://www.w3.org/2000/svg" viewBox="0 0 32 32" fill="none">
  <rect width="32" height="32" rx="8" fill="#18181b"/>
  <path d="M9 7h6.5c1.8 0 3.2.5 4.1 1.4.9.9 1.4 2 1.4 3.3 0 1-.3 1.9-.8 2.6-.5.7-1.2 1.2-2.1 1.5v.1c1.1.2 2 .8 2.6 1.6.6.8 1 1.9 1 3.1 0 1.5-.5 2.7-1.6 3.6-1 .9-2.4 1.3-4.2 1.3H9V7zm3.5 8h2.8c.9 0 1.5-.2 2-.6.4-.4.7-1 .7-1.7 0-.7-.2-1.2-.7-1.6-.4-.4-1.1-.6-1.9-.6h-2.9V15zm0 3v5.5h3.2c.9 0 1.6-.2 2.1-.7.5-.5.7-1.1.7-1.9s-.3-1.5-.8-2c-.5-.5-1.3-.8-2.3-.8h-2.9z" fill="white"/>
</svg>
